<?xml version="1.0" encoding="UTF-8" standalone="no"?>
<!-- Created with Inkscape (http://www.inkscape.org/) -->

<svg
   xmlns:dc="http://purl.org/dc/elements/1.1/"
   xmlns:cc="http://creativecommons.org/ns#"
   xmlns:rdf="http://www.w3.org/1999/02/22-rdf-syntax-ns#"
   xmlns:svg="http://www.w3.org/2000/svg"
   xmlns="http://www.w3.org/2000/svg"
   xmlns:sodipodi="http://sodipodi.sourceforge.net/DTD/sodipodi-0.dtd"
   xmlns:inkscape="http://www.inkscape.org/namespaces/inkscape"
   width="566.92914"
   height="248.03149"
   id="svg2985"
   version="1.1"
   inkscape:version="0.48.5 r10040"
   sodipodi:docname="typy_grupowan_trojkatow.svg">
  <defs
     id="defs2987" />
  <sodipodi:namedview
     inkscape:document-units="mm"
     pagecolor="#ffffff"
     bordercolor="#666666"
     borderopacity="1.0"
     inkscape:pageopacity="0.0"
     inkscape:pageshadow="2"
     inkscape:zoom="2"
     inkscape:cx="242.71008"
     inkscape:cy="99.050491"
     inkscape:current-layer="layer1"
     id="namedview2989"
     showgrid="false"
     inkscape:window-width="1920"
     inkscape:window-height="1003"
     inkscape:window-x="-9"
     inkscape:window-y="-9"
     inkscape:window-maximized="1"
     units="cm" />
  <metadata
     id="metadata2991">
    <rdf:RDF>
      <cc:Work
         rdf:about="">
        <dc:format>image/svg+xml</dc:format>
        <dc:type
           rdf:resource="http://purl.org/dc/dcmitype/StillImage" />
        <dc:title />
      </cc:Work>
    </rdf:RDF>
  </metadata>
  <g
     inkscape:label="Layer 1"
     inkscape:groupmode="layer"
     id="layer1"
     transform="translate(0,-496.06353)">
    <path
       style="fill:#000000;fill-opacity:1;stroke:#000000;stroke-width:2.21456693;stroke-linecap:round;stroke-linejoin:miter;stroke-opacity:1;stroke-miterlimit:4;stroke-dasharray:none"
       d="m 24.963185,577.39835 1.357021,105.03131 50.209691,-26.95494 65.589233,56.23359 53.8284,-23.23702 70.11265,-2.78845 -5.88042,-124.5504 -70.56497,14.40694 -51.56671,-27.41966 -59.708827,1.85895 z"
       id="path3002"
       inkscape:connector-curvature="0" />
    <path
       style="fill:none;stroke:#000000;stroke-width:0.79624295px;stroke-linecap:round;stroke-linejoin:miter;stroke-opacity:1"
       d="m 76.232108,655.50386 2.229263,-105.4865"
       id="path3004"
       inkscape:connector-curvature="0"
       sodipodi:nodetypes="cc" />
    <path
       style="fill:none;stroke:#000000;stroke-width:0.79624295px;stroke-linecap:round;stroke-linejoin:miter;stroke-opacity:1"
       d="m 138.048,548.25764 4.07369,163.35826"
       id="path3006"
       inkscape:connector-curvature="0"
       sodipodi:nodetypes="cc" />
    <path
       style="fill:none;stroke:#000000;stroke-width:0.79624295px;stroke-linecap:round;stroke-linejoin:miter;stroke-opacity:1"
       d="m 189.61479,575.71366 6.33274,112.69954"
       id="path3008"
       inkscape:connector-curvature="0" />
    <path
       style="fill:none;stroke:#000000;stroke-width:0.79724409;stroke-linecap:round;stroke-linejoin:miter;stroke-miterlimit:4;stroke-opacity:1;stroke-dasharray:none"
       d="M 26.433285,682.19729 78.452338,550.09485"
       id="path3010"
       inkscape:connector-curvature="0" />
    <path
       style="fill:none;stroke:#000000;stroke-width:0.79624295px;stroke-linecap:round;stroke-linejoin:miter;stroke-opacity:1"
       d="M 76.272094,655.42171 137.88365,548.37341"
       id="path3012"
       inkscape:connector-curvature="0" />
    <path
       style="fill:none;stroke:#000000;stroke-width:0.79624295px;stroke-linecap:round;stroke-linejoin:miter;stroke-opacity:1"
       d="m 142.34529,711.0112 47.2695,-135.47182"
       id="path3014"
       inkscape:connector-curvature="0" />
    <path
       style="fill:none;stroke:#000000;stroke-width:0.79624295px;stroke-linecap:round;stroke-linejoin:miter;stroke-opacity:1"
       d="M 196.0075,688.34926 259.9536,561.13244"
       id="path3016"
       inkscape:connector-curvature="0"
       sodipodi:nodetypes="cc" />
    <path
       style="fill:#aade87;fill-opacity:1;fill-rule:nonzero;stroke:#000000;stroke-width:0.32395178;stroke-linecap:round;stroke-linejoin:miter;stroke-miterlimit:4;stroke-opacity:1;stroke-dasharray:none;stroke-dashoffset:0"
       d="m 26.802794,674.11379 c -0.256652,-6.74757 -1.311601,-96.23211 -1.136485,-96.40088 0.288797,-0.27836 51.547196,-26.52494 51.615944,-26.42967 0.04,0.0554 -10.767855,27.60625 -24.017368,61.2242 -13.249505,33.61791 -24.580223,62.37593 -25.179369,63.90669 l -1.089362,2.7832 -0.19336,-5.08354 0,0 z"
       id="path3826"
       inkscape:connector-curvature="0" />
    <path
       style="fill:#aade87;fill-opacity:1;fill-rule:nonzero;stroke:#000000;stroke-width:0.32395178;stroke-linecap:round;stroke-linejoin:miter;stroke-miterlimit:4;stroke-opacity:1;stroke-dasharray:none;stroke-dashoffset:0"
       d="m 27.600438,680.78081 c 1.267312,-3.50038 50.021556,-126.87421 50.10403,-126.78949 0.208126,0.21385 -1.874762,99.89455 -2.103748,100.67859 -0.174942,0.59905 -3.977705,2.77272 -18.292523,10.45615 -29.05009,15.59253 -29.834979,16.00614 -29.707759,15.65475 z"
       id="path3828"
       inkscape:connector-curvature="0" />
    <path
       style="fill:#aade87;fill-opacity:1;fill-rule:nonzero;stroke:#000000;stroke-width:0.32395178;stroke-linecap:round;stroke-linejoin:miter;stroke-miterlimit:4;stroke-opacity:1;stroke-dasharray:none;stroke-dashoffset:0"
       d="m 76.836482,652.76351 c -0.01789,-4.07155 2.211349,-101.97146 2.324597,-102.08781 0.140969,-0.14482 57.515821,-2.0572 57.708831,-1.92352 0.0431,0.0299 -13.3194,23.33373 -29.69449,51.78636 -16.375077,28.45262 -29.899753,51.95385 -30.054821,52.22497 -0.250621,0.43815 -0.282191,0.43815 -0.284117,0 z"
       id="path3830"
       inkscape:connector-curvature="0" />
    <path
       style="fill:#aade87;fill-opacity:1;fill-rule:nonzero;stroke:#000000;stroke-width:0.32395178;stroke-linecap:round;stroke-linejoin:miter;stroke-miterlimit:4;stroke-opacity:1;stroke-dasharray:none;stroke-dashoffset:0"
       d="M 109.28421,682.77611 C 91.69233,667.69109 77.298973,655.23059 77.298973,655.08615 c 0,-0.61337 60.139607,-104.72641 60.212347,-104.23897 0.15996,1.07179 3.93998,155.69718 3.85033,157.50105 l -0.0922,1.8552 -31.98523,-27.42732 0,0 z"
       id="path3832"
       inkscape:connector-curvature="0" />
    <path
       style="fill:#aade87;fill-opacity:1;fill-rule:nonzero;stroke:#000000;stroke-width:0.32395178;stroke-linecap:round;stroke-linejoin:miter;stroke-miterlimit:4;stroke-opacity:1;stroke-dasharray:none;stroke-dashoffset:0"
       d="m 142.67283,707.61583 c -0.0965,-0.36753 -4.04116,-158.21832 -3.95616,-158.31202 0.16391,-0.18069 50.03166,26.37884 50.04162,26.65214 0.0113,0.311 -45.72961,131.46773 -45.9164,131.65988 -0.0732,0.0753 -0.14929,0.0753 -0.16906,0 z"
       id="path3834"
       inkscape:connector-curvature="0" />
    <path
       style="fill:#aade87;fill-opacity:1;fill-rule:nonzero;stroke:#000000;stroke-width:0.32395178;stroke-linecap:round;stroke-linejoin:miter;stroke-miterlimit:4;stroke-opacity:1;stroke-dasharray:none;stroke-dashoffset:0"
       d="m 143.37119,709.73461 c 0.19496,-0.51768 10.49055,-29.99953 22.87909,-65.51526 12.38854,-35.51572 22.6172,-64.79584 22.73035,-65.06696 0.11315,-0.27111 1.60214,24.12899 3.30886,54.22248 1.70673,30.09346 3.08782,54.72532 3.06908,54.73744 -0.0536,0.0345 -51.48189,22.21447 -51.93608,22.39883 -0.31928,0.12958 -0.33022,-0.0359 -0.0512,-0.77653 l 0,0 z"
       id="path3836"
       inkscape:connector-curvature="0" />
    <path
       style="fill:#aade87;fill-opacity:1;fill-rule:nonzero;stroke:#000000;stroke-width:0.32395178;stroke-linecap:round;stroke-linejoin:miter;stroke-miterlimit:4;stroke-opacity:1;stroke-dasharray:none;stroke-dashoffset:0"
       d="m 196.32818,684.63975 c -0.10129,-0.81334 -1.48326,-25.06558 -3.07104,-53.89386 -1.5878,-28.82828 -2.94137,-52.93457 -3.00796,-53.56955 l -0.12105,-1.15449 34.22785,-6.98819 c 18.82531,-3.84351 34.26558,-6.94705 34.3117,-6.89674 0.0461,0.0502 -13.08156,26.26615 -29.17264,58.25741 -16.09108,31.99126 -30.0949,59.86654 -31.1196,61.94507 l -1.86311,3.77914 -0.18415,-1.47879 z"
       id="path3838"
       inkscape:connector-curvature="0" />
    <path
       style="fill:#aade87;fill-opacity:1;fill-rule:nonzero;stroke:#000000;stroke-width:0.32395178;stroke-linecap:round;stroke-linejoin:miter;stroke-miterlimit:4;stroke-opacity:1;stroke-dasharray:none;stroke-dashoffset:0"
       d="m 197.08369,687.75413 c 0,-0.63514 62.54116,-124.60175 62.61426,-124.11151 0.0457,0.30663 1.29868,26.51036 2.78436,58.23051 1.48569,31.72013 2.78798,58.93417 2.89398,60.4756 l 0.19275,2.80259 -31.92375,1.23203 c -17.55806,0.67761 -32.96726,1.31929 -34.24268,1.42593 -1.27541,0.10665 -2.31892,0.0818 -2.31892,-0.0551 z"
       id="path3840"
       inkscape:connector-curvature="0" />
    <path
       style="fill:#87de87;fill-opacity:1;fill-rule:nonzero;stroke:none"
       d="m 200.02164,682.85937 c 1.32619,-2.63196 7.63788,-15.24206 14.02599,-28.02242 27.71922,-55.45638 45.24646,-89.53455 45.36737,-88.20767 0.19222,2.10933 5.53567,114.37963 5.53567,116.30887 l 0,1.76219 -6.44582,0.29809 c -3.54522,0.16394 -17.0306,0.70612 -29.96751,1.20483 -12.93691,0.49872 -25.18785,1.02708 -27.2243,1.17414 l -3.70263,0.26737 2.41123,-4.7854 0,0 z"
       id="path3842"
       inkscape:connector-curvature="0" />
    <path
       style="fill:#87de87;fill-opacity:1;fill-rule:nonzero;stroke:none"
       d="m 196.51999,680.98714 c -0.64063,-8.27352 -5.90523,-104.45529 -5.72648,-104.62047 0.26007,-0.24031 66.64742,-13.66138 66.8413,-13.51283 0.1419,0.10872 -17.68501,35.81928 -46.8465,93.84207 -7.57942,15.08085 -13.83161,27.47582 -13.89376,27.54441 -0.0621,0.0687 -0.23069,-1.39533 -0.37456,-3.25318 l 0,0 z"
       id="path3844"
       inkscape:connector-curvature="0" />
    <path
       style="fill:#87de87;fill-opacity:1;fill-rule:nonzero;stroke:none"
       d="m 144.17601,709.11235 c 0,-0.40877 42.77393,-123.22658 43.99021,-126.31015 0.46516,-1.17929 0.77312,2.22386 1.99772,22.07517 2.17994,35.33847 4.82214,82.72738 4.62351,82.9248 -0.24232,0.24085 -48.83754,21.22994 -49.81985,21.51802 -0.43537,0.1277 -0.79159,0.0341 -0.79159,-0.20784 z"
       id="path3846"
       inkscape:connector-curvature="0" />
    <path
       style="fill:#87de87;fill-opacity:1;fill-rule:nonzero;stroke:none"
       d="m 142.81662,701.73699 c -0.002,-2.27915 -0.81444,-36.35043 -1.80699,-75.71394 -0.99254,-39.36351 -1.80567,-72.57461 -1.80698,-73.80246 l -0.002,-2.23243 11.64774,6.13844 c 15.6538,8.24965 36.43468,19.47501 36.91533,19.94084 0.30555,0.29611 -44.10357,128.86165 -44.77331,129.61985 -0.0941,0.1065 -0.17211,-1.67113 -0.17341,-3.9503 l 0,0 z"
       id="path3848"
       inkscape:connector-curvature="0" />
    <path
       style="fill:#87de87;fill-opacity:1;fill-rule:nonzero;stroke:none"
       d="M 128.34413,698.58168 C 96.772919,671.42087 78.34798,655.41302 78.208808,655.02337 c -0.21449,-0.6006 20.14875,-36.25793 48.268982,-84.52211 l 10.68696,-18.34256 0.11775,4.63272 c 1.3584,53.45059 3.7066,152.35328 3.61864,152.41255 -0.0647,0.0436 -5.71539,-4.73641 -12.55701,-10.62229 z"
       id="path3850"
       inkscape:connector-curvature="0" />
    <path
       style="fill:#87de87;fill-opacity:1;fill-rule:nonzero;stroke:none"
       d="m 77.442782,642.28897 c 0.145105,-5.11216 0.680726,-27.69682 1.190265,-50.18818 0.509548,-22.49136 0.962023,-40.92739 1.005511,-40.96895 0.135065,-0.12912 56.141992,-1.97378 56.259552,-1.85299 0.0611,0.0627 -3.77657,6.89917 -8.52804,15.1921 -19.85877,34.6603 -48.482554,84.42346 -49.305348,85.71861 l -0.885753,1.39421 0.263813,-9.2948 z"
       id="path3852"
       inkscape:connector-curvature="0" />
    <path
       style="fill:#87de87;fill-opacity:1;fill-rule:nonzero;stroke:none"
       d="m 28.431032,679.81324 c 1.550569,-4.35973 48.570971,-122.72829 48.699717,-122.59602 0.191911,0.19717 -0.429224,34.44735 -1.338817,73.82574 l -0.54536,23.60954 -4.323394,2.47332 c -4.513248,2.58191 -16.401671,9.03157 -28.749744,15.59716 -3.980582,2.11653 -8.739799,4.68663 -10.576026,5.71137 -1.836232,1.02471 -3.261099,1.64523 -3.166376,1.37889 l 0,0 z"
       id="path3854"
       inkscape:connector-curvature="0" />
    <path
       style="fill:#87de87;fill-opacity:1;fill-rule:nonzero;stroke:none"
       d="m 27.319398,675.51791 c -0.240403,-1.11519 -1.226805,-74.44297 -1.211457,-90.0575 l 0.0078,-7.56605 24.949026,-12.77153 c 13.721931,-7.02431 25.015526,-12.70313 25.096854,-12.61958 0.147568,0.15162 -7.965024,20.91699 -34.078783,87.22964 -7.599634,19.29834 -13.973927,35.50616 -14.165089,36.01739 -0.324,0.86646 -0.364532,0.85071 -0.598009,-0.23237 z"
       id="path3856"
       inkscape:connector-curvature="0" />
    <text
       xml:space="preserve"
       style="font-size:19.10983086px;font-style:normal;font-weight:normal;line-height:125%;letter-spacing:0px;word-spacing:0px;fill:#000000;fill-opacity:1;stroke:none;font-family:Sans"
       x="14.299095"
       y="568.2674"
       id="text3858"
       sodipodi:linespacing="125%"
       transform="scale(0.98656818,1.0136147)"><tspan
         sodipodi:role="line"
         id="tspan3860"
         x="14.299095"
         y="568.2674">1</tspan></text>
    <text
       xml:space="preserve"
       style="font-size:19.10983086px;font-style:normal;font-weight:normal;line-height:125%;letter-spacing:0px;word-spacing:0px;fill:#000000;fill-opacity:1;stroke:none;font-family:Sans"
       x="13.840591"
       y="687.47675"
       id="text3862"
       sodipodi:linespacing="125%"
       transform="scale(0.98656818,1.0136147)"><tspan
         sodipodi:role="line"
         id="tspan3864"
         x="13.840591"
         y="687.47675">2</tspan></text>
    <text
       xml:space="preserve"
       style="font-size:19.10983086px;font-style:normal;font-weight:normal;line-height:125%;letter-spacing:0px;word-spacing:0px;fill:#000000;fill-opacity:1;stroke:none;font-family:Sans"
       x="75.279358"
       y="539.38196"
       id="text3866"
       sodipodi:linespacing="125%"
       transform="scale(0.98656818,1.0136147)"><tspan
         sodipodi:role="line"
         id="tspan3868"
         x="75.279358"
         y="539.38196">3</tspan></text>
    <text
       xml:space="preserve"
       style="font-size:19.10983086px;font-style:normal;font-weight:normal;line-height:125%;letter-spacing:0px;word-spacing:0px;fill:#000000;fill-opacity:1;stroke:none;font-family:Sans"
       x="72.528351"
       y="671.42938"
       id="text3870"
       sodipodi:linespacing="125%"
       transform="scale(0.98656818,1.0136147)"><tspan
         sodipodi:role="line"
         id="tspan3872"
         x="72.528351"
         y="671.42938">4</tspan></text>
    <text
       xml:space="preserve"
       style="font-size:19.10983086px;font-style:normal;font-weight:normal;line-height:125%;letter-spacing:0px;word-spacing:0px;fill:#000000;fill-opacity:1;stroke:none;font-family:Sans"
       x="139.01056"
       y="534.797"
       id="text3874"
       sodipodi:linespacing="125%"
       transform="scale(0.98656818,1.0136147)"><tspan
         sodipodi:role="line"
         id="tspan3876"
         x="139.01056"
         y="534.797">5</tspan></text>
    <text
       xml:space="preserve"
       style="font-size:19.10983086px;font-style:normal;font-weight:normal;line-height:125%;letter-spacing:0px;word-spacing:0px;fill:#000000;fill-opacity:1;stroke:none;font-family:Sans"
       x="138.09355"
       y="723.23969"
       id="text3878"
       sodipodi:linespacing="125%"
       transform="scale(0.98656818,1.0136147)"><tspan
         sodipodi:role="line"
         id="tspan3880"
         x="138.09355"
         y="723.23969">6</tspan></text>
    <text
       xml:space="preserve"
       style="font-size:19.10983086px;font-style:normal;font-weight:normal;line-height:125%;letter-spacing:0px;word-spacing:0px;fill:#000000;fill-opacity:1;stroke:none;font-family:Sans"
       x="193.11334"
       y="560.4729"
       id="text3882"
       sodipodi:linespacing="125%"
       transform="scale(0.98656818,1.0136147)"><tspan
         sodipodi:role="line"
         id="tspan3884"
         x="193.11334"
         y="560.4729">7</tspan></text>
    <text
       xml:space="preserve"
       style="font-size:19.10983086px;font-style:normal;font-weight:normal;line-height:125%;letter-spacing:0px;word-spacing:0px;fill:#000000;fill-opacity:1;stroke:none;font-family:Sans"
       x="194.94731"
       y="701.69025"
       id="text3886"
       sodipodi:linespacing="125%"
       transform="scale(0.98656818,1.0136147)"><tspan
         sodipodi:role="line"
         id="tspan3888"
         x="194.94731"
         y="701.69025">8</tspan></text>
    <text
       xml:space="preserve"
       style="font-size:19.10983086px;font-style:normal;font-weight:normal;line-height:125%;letter-spacing:0px;word-spacing:0px;fill:#000000;fill-opacity:1;stroke:none;font-family:Sans"
       x="258.22006"
       y="547.17645"
       id="text3890"
       sodipodi:linespacing="125%"
       transform="scale(0.98656818,1.0136147)"><tspan
         sodipodi:role="line"
         id="tspan3892"
         x="258.22006"
         y="547.17645">9</tspan></text>
    <text
       xml:space="preserve"
       style="font-size:19.10983086px;font-style:normal;font-weight:normal;line-height:125%;letter-spacing:0px;word-spacing:0px;fill:#000000;fill-opacity:1;stroke:none;font-family:Sans"
       x="256.84451"
       y="698.93927"
       id="text3894"
       sodipodi:linespacing="125%"
       transform="scale(0.98656818,1.0136147)"><tspan
         sodipodi:role="line"
         id="tspan3896"
         x="256.84451"
         y="698.93927">10</tspan></text>
    <path
       style="fill:#000000;fill-opacity:1;stroke:#000000;stroke-width:2.15433071;stroke-linecap:round;stroke-linejoin:round;stroke-miterlimit:4;stroke-opacity:1;stroke-dasharray:none"
       d="m 434.06815,632.97449 -107.18738,21.89204 18.00414,-100.87509 57.36198,-30.04791 82.90273,19.74577 59.03679,60.95432 -22.19113,84.56338 -71.17911,30.0479 -76.20352,-22.75056 z"
       id="path3904"
       inkscape:connector-curvature="0" />
    <path
       style="fill:none;stroke:#000000;stroke-width:0.73623759px;stroke-linecap:round;stroke-linejoin:miter;stroke-opacity:1"
       d="m 434.41862,632.95906 16.39755,86.08122"
       id="path3906"
       inkscape:connector-curvature="0"
       sodipodi:nodetypes="cc" />
    <path
       style="fill:none;stroke:#000000;stroke-width:0.73623759px;stroke-linecap:round;stroke-linejoin:round;stroke-opacity:1"
       d="M 521.99528,688.99238 434.58516,632.82626 543.97705,604.42898"
       id="path3908"
       inkscape:connector-curvature="0"
       sodipodi:nodetypes="ccc" />
    <path
       style="fill:none;stroke:#000000;stroke-width:0.73623759px;stroke-linecap:round;stroke-linejoin:round;stroke-opacity:1"
       d="M 485.18233,543.72282 434.60602,632.69105 402.45624,524.15816"
       id="path3910"
       inkscape:connector-curvature="0"
       sodipodi:nodetypes="ccc" />
    <path
       style="fill:none;stroke:#000000;stroke-width:0.73623759px;stroke-linecap:round;stroke-linejoin:round;stroke-opacity:1"
       d="m 345.06809,554.23289 89.13665,78.36573"
       id="path3912"
       inkscape:connector-curvature="0"
       sodipodi:nodetypes="cc" />
    <path
       style="fill:#80e5ff;stroke:#000000;stroke-width:0.21180576;stroke-linecap:round;stroke-linejoin:round;stroke-miterlimit:4;stroke-opacity:1;stroke-dasharray:none;stroke-dashoffset:0"
       d="m 451.1586,718.2775 c -0.20346,-0.65574 -16.02794,-84.15004 -15.97498,-84.28839 0.0329,-0.0863 19.27836,12.19773 42.76746,27.29773 23.48912,15.09999 42.81401,27.52251 42.94423,27.60558 0.18565,0.11843 -30.27388,13.08966 -66.23127,28.20462 -2.29318,0.96395 -3.45159,1.35405 -3.50544,1.18046 l 0,0 z"
       id="path3952"
       inkscape:connector-curvature="0" />
    <path
       style="fill:#80e5ff;fill-opacity:1;fill-rule:nonzero;stroke:#000000;stroke-width:0.21180576;stroke-linecap:round;stroke-linejoin:round;stroke-miterlimit:4;stroke-opacity:1;stroke-dasharray:none;stroke-dashoffset:0"
       d="m 412.79425,707.42771 c -20.40715,-6.09781 -37.07812,-11.17097 -37.0466,-11.27373 0.0315,-0.10274 13.14837,-14.17826 29.14858,-31.27891 25.55373,-27.31122 29.1094,-31.03375 29.24019,-30.61228 0.0818,0.2639 3.68589,19.07195 8.00887,41.79568 4.32299,22.72373 7.91402,41.58147 7.98006,41.90609 0.066,0.32464 0.0419,0.58118 -0.0535,0.57013 -0.0955,-0.011 -16.8704,-5.00919 -37.27755,-11.10698 z"
       id="path3954"
       inkscape:connector-curvature="0" />
    <path
       style="fill:#80e5ff;fill-opacity:1;fill-rule:nonzero;stroke:#000000;stroke-width:0.21180576;stroke-linecap:round;stroke-linejoin:round;stroke-miterlimit:4;stroke-opacity:1;stroke-dasharray:none;stroke-dashoffset:0"
       d="m 479.52122,661.10391 c -23.20125,-14.91512 -42.53654,-27.33489 -42.9673,-27.59953 l -0.78321,-0.48115 53.85352,-13.98227 c 29.61942,-7.69024 53.87316,-13.96354 53.89716,-13.94065 0.0431,0.0412 -21.05908,80.5456 -21.55836,82.24479 l -0.25772,0.87717 -42.18409,-27.11836 z"
       id="path3956"
       inkscape:connector-curvature="0" />
    <path
       style="fill:#80e5ff;fill-opacity:1;fill-rule:nonzero;stroke:#000000;stroke-width:0.21180576;stroke-linecap:round;stroke-linejoin:round;stroke-miterlimit:4;stroke-opacity:1;stroke-dasharray:none;stroke-dashoffset:0"
       d="m 436.11835,631.04204 c 0.3249,-0.58105 11.51815,-20.27982 24.87388,-43.77507 l 24.28317,-42.71862 18.83011,19.44909 c 10.35656,10.697 23.35254,24.10508 28.87995,29.79571 6.56462,6.75848 9.94505,10.38351 9.74768,10.45303 -0.16619,0.0586 -24.18379,6.29639 -53.37247,13.86193 -29.18866,7.56553 -53.24191,13.80835 -53.45167,13.87293 -0.32441,0.0999 -0.29312,-0.0404 0.20935,-0.939 z"
       id="path3958"
       inkscape:connector-curvature="0" />
    <path
       style="fill:#80e5ff;fill-opacity:1;fill-rule:nonzero;stroke:#000000;stroke-width:0.21180576;stroke-linecap:round;stroke-linejoin:round;stroke-miterlimit:4;stroke-opacity:1;stroke-dasharray:none;stroke-dashoffset:0"
       d="m 434.31801,630.01726 c -0.24419,-0.82437 -7.35567,-24.82354 -15.80328,-53.33149 -8.44763,-28.50796 -15.32706,-51.86853 -15.28764,-51.91236 0.10008,-0.11132 80.75837,19.09413 80.95535,19.27617 0.0881,0.0815 -10.87212,19.55484 -24.35608,43.27426 -13.48394,23.71941 -24.6396,43.36607 -24.79032,43.65924 -0.26485,0.51514 -0.28895,0.48271 -0.71803,-0.96582 l 0,0 z"
       id="path3960"
       inkscape:connector-curvature="0" />
    <path
       style="fill:#80e5ff;fill-opacity:1;fill-rule:nonzero;stroke:#000000;stroke-width:0.21180576;stroke-linecap:round;stroke-linejoin:round;stroke-miterlimit:4;stroke-opacity:1;stroke-dasharray:none;stroke-dashoffset:0"
       d="m 389.65586,592.77268 -43.91296,-38.60267 0.89147,-0.51684 c 3.55663,-2.06195 55.29116,-28.91608 55.42609,-28.77033 0.18087,0.19539 31.65907,106.34446 31.56386,106.43798 -0.0305,0.0299 -19.81634,-17.31668 -43.96846,-38.54814 z"
       id="path3962"
       inkscape:connector-curvature="0" />
    <path
       style="fill:#80e5ff;fill-opacity:1;fill-rule:nonzero;stroke:#000000;stroke-width:0.21259843;stroke-linecap:round;stroke-linejoin:round;stroke-miterlimit:4;stroke-opacity:1;stroke-dasharray:none;stroke-dashoffset:0"
       d="m 327.53288,654.06873 c 0,-0.17968 17.57065,-98.67621 17.64062,-98.88878 0.0333,-0.10126 87.18783,76.34599 88.22787,77.38873 0.0313,0.0313 -102.08024,20.91731 -105.29276,21.53677 -0.31665,0.0611 -0.57573,0.0445 -0.57573,-0.0368 z"
       id="path3964"
       inkscape:connector-curvature="0" />
    <text
       xml:space="preserve"
       style="font-size:17.66970253px;font-style:normal;font-weight:normal;line-height:125%;letter-spacing:0px;word-spacing:0px;fill:#000000;fill-opacity:1;stroke:none;font-family:Sans"
       x="412.80124"
       y="625.59442"
       id="text3966"
       sodipodi:linespacing="125%"
       transform="scale(0.98762877,1.0125262)"><tspan
         sodipodi:role="line"
         id="tspan3968"
         x="412.80124"
         y="625.59442">1</tspan></text>
    <text
       xml:space="preserve"
       style="font-size:17.66970253px;font-style:normal;font-weight:normal;line-height:125%;letter-spacing:0px;word-spacing:0px;fill:#000000;fill-opacity:1;stroke:none;font-family:Sans"
       x="318.67197"
       y="654.97229"
       id="text3970"
       sodipodi:linespacing="125%"
       transform="scale(0.98762877,1.0125262)"><tspan
         sodipodi:role="line"
         id="tspan3972"
         x="318.67197"
         y="654.97229">2</tspan></text>
    <text
       xml:space="preserve"
       style="font-size:17.66970253px;font-style:normal;font-weight:normal;line-height:125%;letter-spacing:0px;word-spacing:0px;fill:#000000;fill-opacity:1;stroke:none;font-family:Sans"
       x="331.86203"
       y="551.84979"
       id="text3974"
       sodipodi:linespacing="125%"
       transform="scale(0.98762877,1.0125262)"><tspan
         sodipodi:role="line"
         id="tspan3976"
         x="331.86203"
         y="551.84979">3</tspan></text>
    <text
       xml:space="preserve"
       style="font-size:17.66970253px;font-style:normal;font-weight:normal;line-height:125%;letter-spacing:0px;word-spacing:0px;fill:#000000;fill-opacity:1;stroke:none;font-family:Sans"
       x="401.40979"
       y="514.07813"
       id="text3978"
       sodipodi:linespacing="125%"
       transform="scale(0.98762877,1.0125262)"><tspan
         sodipodi:role="line"
         id="tspan3980"
         x="401.40979"
         y="514.07813">4</tspan></text>
    <text
       xml:space="preserve"
       style="font-size:17.66970253px;font-style:normal;font-weight:normal;line-height:125%;letter-spacing:0px;word-spacing:0px;fill:#000000;fill-opacity:1;stroke:none;font-family:Sans"
       x="491.34213"
       y="531.46515"
       id="text3982"
       sodipodi:linespacing="125%"
       transform="scale(0.98762877,1.0125262)"><tspan
         sodipodi:role="line"
         id="tspan3984"
         x="491.34213"
         y="531.46515">5</tspan></text>
    <text
       xml:space="preserve"
       style="font-size:17.66970253px;font-style:normal;font-weight:normal;line-height:125%;letter-spacing:0px;word-spacing:0px;fill:#000000;fill-opacity:1;stroke:none;font-family:Sans"
       x="559.69086"
       y="601.01288"
       id="text3986"
       sodipodi:linespacing="125%"
       transform="scale(0.98762877,1.0125262)"><tspan
         sodipodi:role="line"
         id="tspan3988"
         x="559.69086"
         y="601.01288">6</tspan></text>
    <text
       xml:space="preserve"
       style="font-size:17.66970253px;font-style:normal;font-weight:normal;line-height:125%;letter-spacing:0px;word-spacing:0px;fill:#000000;fill-opacity:1;stroke:none;font-family:Sans"
       x="533.91016"
       y="691.5448"
       id="text3990"
       sodipodi:linespacing="125%"
       transform="scale(0.98762877,1.0125262)"><tspan
         sodipodi:role="line"
         id="tspan3992"
         x="533.91016"
         y="691.5448">7</tspan></text>
    <text
       xml:space="preserve"
       style="font-size:17.66970253px;font-style:normal;font-weight:normal;line-height:125%;letter-spacing:0px;word-spacing:0px;fill:#000000;fill-opacity:1;stroke:none;font-family:Sans"
       x="457.76746"
       y="729.31635"
       id="text3994"
       sodipodi:linespacing="125%"
       transform="scale(0.98762877,1.0125262)"><tspan
         sodipodi:role="line"
         id="tspan3996"
         x="457.76746"
         y="729.31635">8</tspan></text>
    <text
       xml:space="preserve"
       style="font-size:17.66970253px;font-style:normal;font-weight:normal;line-height:125%;letter-spacing:0px;word-spacing:0px;fill:#000000;fill-opacity:1;stroke:none;font-family:Sans"
       x="366.63589"
       y="701.13763"
       id="text3998"
       sodipodi:linespacing="125%"
       transform="scale(0.98762877,1.0125262)"><tspan
         sodipodi:role="line"
         id="tspan4000"
         x="366.63589"
         y="701.13763">9</tspan></text>
  </g>
</svg>
